<svg width="64" height="64" viewBox="0 0 64 64" fill="none" xmlns="http://www.w3.org/2000/svg">
<rect width="62" height="50.38" fill="black" fill-opacity="0" transform="translate(1 7)"/>
<path d="M63 22.5V57.38H1V22.5C1.00265 21.4727 1.4126 20.4884 2.13996 19.7629C2.86731 19.0374 3.85269 18.63 4.88 18.63H16.5V10.88C16.5026 9.85177 16.9123 8.86641 17.6393 8.13934C18.3664 7.41227 19.3518 7.00264 20.38 7H43.62C44.6482 7.00264 45.6336 7.41227 46.3607 8.13934C47.0877 8.86641 47.4974 9.85177 47.5 10.88V18.63H59.12C60.1473 18.63 61.1327 19.0374 61.86 19.7629C62.5874 20.4884 62.9974 21.4727 63 22.5V22.5Z" fill="white"/>
<path d="M63 57.88H63.5V57.38V22.5H63L63.5 22.4987C63.497 21.339 63.0342 20.2278 62.2131 19.4089C61.3921 18.5899 60.2797 18.13 59.12 18.13H48V10.88V10.8787C47.997 9.71833 47.5347 8.60631 46.7142 7.78579C45.8937 6.96527 44.7817 6.50298 43.6213 6.5H43.62L20.38 6.5L20.3787 6.5C19.2183 6.50298 18.1063 6.96527 17.2858 7.78579C16.4653 8.60631 16.003 9.71832 16 10.8787V10.88V18.13H4.88C3.72031 18.13 2.60794 18.5899 1.78686 19.4089C0.965773 20.2278 0.502991 21.339 0.5 22.4987V22.5V57.38V57.88H1H63Z" stroke="white" stroke-opacity="0.5" stroke-miterlimit="10"/>
<path d="M52.34 38V34.13H63V22.5C62.9974 21.4727 62.5874 20.4884 61.86 19.7629C61.1327 19.0374 60.1473 18.63 59.12 18.63H47.5V10.88C47.4947 9.85258 47.0843 8.86874 46.3578 8.14223C45.6313 7.41573 44.6474 7.00526 43.62 7H20.37C19.3427 7.00265 18.3584 7.4126 17.6329 8.13996C16.9074 8.86731 16.5 9.85269 16.5 10.88V18.63H4.87C3.84361 18.63 2.85926 19.0377 2.1335 19.7635C1.40773 20.4893 1 21.4736 1 22.5V34.13H11.65V38H1V57.38H63V38H52.34ZM20.34 10.88H43.62V18.63H20.37L20.34 10.88ZM26.34 42.62L23.95 45.01L14.95 36.01L23.95 27.07L26.34 29.46L19.79 36.01L26.34 42.62ZM31.56 46.62L28.3 45.94L32.37 25.6L35.69 26.27L31.56 46.62ZM39.91 45.06L37.51 42.67L44.06 36.11L37.51 29.56L39.91 27.17L48.86 36.11L39.91 45.06Z" fill="#0078D7"/>
</svg>
