<svg width="64" height="64" viewBox="0 0 64 64" fill="none" xmlns="http://www.w3.org/2000/svg">
<g clip-path="url(#clip0)">
<rect width="50.5192" height="62.035" fill="black" fill-opacity="0" transform="translate(7 1)"/>
<path d="M57.36 52.67V60.73C57.36 60.85 57.36 60.97 57.36 61.06C57.3703 61.1363 57.3703 61.2137 57.36 61.29C57.3039 61.7603 57.0776 62.1937 56.7239 62.5087C56.3703 62.8237 55.9136 62.9985 55.44 63H12.8C11.266 62.9974 9.7953 62.3882 8.70873 61.3054C7.62217 60.2226 7.00792 58.754 7 57.22V3.91C7.00524 3.13984 7.31351 2.40271 7.85811 1.85811C8.40271 1.31351 9.13984 1.00524 9.91 1H54.47C55.2402 1.00524 55.9773 1.31351 56.5219 1.85811C57.0665 2.40271 57.3748 3.13984 57.38 3.91V52.34C57.38 52.45 57.37 52.56 57.36 52.67Z" fill="white"/>
<path d="M55.44 63.5L55.4416 63.5C56.0373 63.4981 56.6117 63.2783 57.0565 62.8821C57.5004 62.4867 57.7847 61.9429 57.8561 61.3528C57.8702 61.2458 57.8715 61.1375 57.86 61.0303V61.03V61.0294V61.0289V61.0283V61.0277V61.0272V61.0266V61.026V61.0255V61.0249V61.0243V61.0238V61.0232V61.0226V61.0221V61.0215V61.0209V61.0203V61.0198V61.0192V61.0186V61.018V61.0175V61.0169V61.0163V61.0157V61.0152V61.0146V61.014V61.0134V61.0128V61.0123V61.0117V61.0111V61.0105V61.0099V61.0093V61.0088V61.0082V61.0076V61.007V61.0064V61.0058V61.0052V61.0046V61.0041V61.0035V61.0029V61.0023V61.0017V61.0011V61.0005V60.9999V60.9993V60.9987V60.9981V60.9975V60.9969V60.9963V60.9958V60.9952V60.9946V60.994V60.9934V60.9928V60.9922V60.9916V60.991V60.9904V60.9898V60.9892V60.9886V60.9879V60.9873V60.9867V60.9861V60.9855V60.9849V60.9843V60.9837V60.9831V60.9825V60.9819V60.9813V60.9807V60.9801V60.9794V60.9788V60.9782V60.9776V60.977V60.9764V60.9758V60.9752V60.9745V60.9739V60.9733V60.9727V60.9721V60.9715V60.9708V60.9702V60.9696V60.969V60.9684V60.9678V60.9671V60.9665V60.9659V60.9653V60.9646V60.964V60.9634V60.9628V60.9622V60.9615V60.9609V60.9603V60.9597V60.959V60.9584V60.9578V60.9571V60.9565V60.9559V60.9553V60.9546V60.954V60.9534V60.9527V60.9521V60.9515V60.9508V60.9502V60.9496V60.9489V60.9483V60.9477V60.947V60.9464V60.9458V60.9451V60.9445V60.9439V60.9432V60.9426V60.9419V60.9413V60.9407V60.94V60.9394V60.9388V60.9381V60.9375V60.9368V60.9362V60.9355V60.9349V60.9343V60.9336V60.933V60.9323V60.9317V60.931V60.9304V60.9297V60.9291V60.9285V60.9278V60.9272V60.9265V60.9259V60.9252V60.9246V60.9239V60.9233V60.9226V60.922V60.9213V60.9207V60.92V60.9194V60.9187V60.9181V60.9174V60.9168V60.9161V60.9154V60.9148V60.9141V60.9135V60.9128V60.9122V60.9115V60.9109V60.9102V60.9095V60.9089V60.9082V60.9076V60.9069V60.9062V60.9056V60.9049V60.9043V60.9036V60.903V60.9023V60.9016V60.901V60.9003V60.8996V60.899V60.8983V60.8977V60.897V60.8963V60.8957V60.895V60.8943V60.8937V60.893V60.8923V60.8917V60.891V60.8903V60.8897V60.889V60.8883V60.8877V60.887V60.8863V60.8857V60.885V60.8843V60.8836V60.883V60.8823V60.8816V60.881V60.8803V60.8796V60.879V60.8783V60.8776V60.8769V60.8763V60.8756V60.8749V60.8742V60.8736V60.8729V60.8722V60.8715V60.8709V60.8702V60.8695V60.8688V60.8682V60.8675V60.8668V60.8661V60.8655V60.8648V60.8641V60.8634V60.8627V60.8621V60.8614V60.8607V60.86V60.8593V60.8587V60.858V60.8573V60.8566V60.8559V60.8553V60.8546V60.8539V60.8532V60.8525V60.8518V60.8512V60.8505V60.8498V60.8491V60.8484V60.8477V60.8471V60.8464V60.8457V60.845V60.8443V60.8436V60.843V60.8423V60.8416V60.8409V60.8402V60.8395V60.8388V60.8382V60.8375V60.8368V60.8361V60.8354V60.8347V60.834V60.8333V60.8326V60.832V60.8313V60.8306V60.8299V60.8292V60.8285V60.8278V60.8271V60.8264V60.8258V60.8251V60.8244V60.8237V60.823V60.8223V60.8216V60.8209V60.8202V60.8195V60.8188V60.8181V60.8175V60.8168V60.8161V60.8154V60.8147V60.814V60.8133V60.8126V60.8119V60.8112V60.8105V60.8098V60.8091V60.8084V60.8077V60.807V60.8064V60.8057V60.805V60.8043V60.8036V60.8029V60.8022V60.8015V60.8008V60.8001V60.7994V60.7987V60.798V60.7973V60.7966V60.7959V60.7952V60.7945V60.7938V60.7931V60.7924V60.7917V60.791V60.7903V60.7896V60.7889V60.7882V60.7875V60.7868V60.7861V60.7854V60.7847V60.784V60.7833V60.7826V60.7819V60.7812V60.7805V60.7798V60.7791V60.7784V60.7777V60.777V60.7763V60.7756V60.7749V60.7742V60.7735V60.7728V60.7721V60.7714V60.7707V60.77V60.7693V60.7686V60.7679V60.7672V60.7665V60.7658V60.7651V60.7644V60.7637V60.763V60.7623V60.7616V60.7609V60.7602V60.7595V60.7588V60.7581V60.7574V60.7567V60.756V60.7553V60.7546V60.7539V60.7532V60.7525V60.7518V60.7511V60.7504V60.7497V60.749V60.7483V60.7476V60.7469V60.7462V60.7455V60.7448V60.7441V60.7434V60.7427V60.742V60.7412V60.7405V60.7398V60.7391V60.7384V60.7377V60.737V60.7363V60.7356V60.7349V60.7342V60.7335V60.7328V60.7321V60.7314V60.7307V60.73V52.6927C57.8693 52.5906 57.88 52.467 57.88 52.34L57.88 3.91L57.88 3.9066C57.8739 3.00501 57.513 2.14209 56.8754 1.50456C56.2379 0.867022 55.375 0.506145 54.4734 0.500012V0.5H54.47H9.91V0.499988L9.9066 0.500012C9.00501 0.506145 8.14209 0.867022 7.50456 1.50456C6.86702 2.14209 6.50615 3.00501 6.50001 3.9066H6.5V3.91L6.49999 57.22L6.50001 57.2226C6.50861 58.8886 7.17571 60.4835 8.35579 61.6596C9.53587 62.8356 11.1331 63.4972 12.7991 63.5H12.8L55.44 63.5Z" stroke="white" stroke-opacity="0.5" stroke-miterlimit="10"/>
<path d="M12.82 55.22H54.47C55.2402 55.2148 55.9773 54.9065 56.5219 54.3619C57.0665 53.8173 57.3748 53.0802 57.38 52.31V3.91C57.3748 3.13984 57.0665 2.40271 56.5219 1.85811C55.9773 1.31351 55.2402 1.00524 54.47 1H49.63V16.5L43.81 10.69L38 16.5V1H9.91C9.13984 1.00524 8.40271 1.31351 7.85811 1.85811C7.31351 2.40271 7.00524 3.13984 7 3.91V57.22C7 58.7592 7.61075 60.2355 8.69817 61.3248C9.7856 62.4141 11.2608 63.0274 12.8 63.03H55.44C55.7058 63.0491 55.9727 63.0133 56.224 62.9247C56.4754 62.8361 56.7058 62.6967 56.9009 62.5151C57.0959 62.3336 57.2515 62.1138 57.3579 61.8695C57.4643 61.6251 57.5192 61.3615 57.5192 61.095C57.5192 60.8285 57.4643 60.5649 57.3579 60.3205C57.2515 60.0762 57.0959 59.8564 56.9009 59.6749C56.7058 59.4933 56.4754 59.3539 56.224 59.2653C55.9727 59.1767 55.7058 59.1409 55.44 59.16H12.82C12.3055 59.16 11.812 58.9556 11.4482 58.5918C11.0844 58.228 10.88 57.7345 10.88 57.22C10.88 56.7055 11.0844 56.212 11.4482 55.8482C11.812 55.4844 12.3055 55.28 12.82 55.28V55.22ZM37.77 25.42L40.17 23.02L49.17 32.02L40.17 40.97L37.77 38.57L44.32 32.02L37.77 25.42ZM32.56 21.47L35.89 22.13L31.82 42.5L28.49 41.84L32.56 21.47ZM24.19 23.05L26.59 25.45L20.04 32L26.59 38.55L24.19 40.95L15.24 32L24.19 23.05Z" fill="#0078D7"/>
</g>
<defs>
<clipPath id="clip0">
<rect width="64" height="64" fill="white"/>
</clipPath>
</defs>
</svg>
